<?xml version="1.0" standalone="no"?>
<!DOCTYPE svg PUBLIC "-//W3C//DTD SVG 20010904//EN"
 "http://www.w3.org/TR/2001/REC-SVG-20010904/DTD/svg10.dtd">
<svg version="1.0" xmlns="http://www.w3.org/2000/svg"
 width="400.000000pt" height="400.000000pt" viewBox="0 0 400.000000 400.000000"
 preserveAspectRatio="xMidYMid meet">
<metadata>
Created by potrace 1.11, written by Peter Selinger 2001-2013
</metadata>
<g transform="translate(0.000000,400.000000) scale(0.100000,-0.100000)"
fill="#000000" stroke="none">
<path d="M0 2000 l0 -2000 2000 0 2000 0 0 2000 0 2000 -2000 0 -2000 0 0
-2000z m2005 640 l300 -601 -3 601 -4 600 416 0 416 0 0 -295 0 -295 -75 0
-75 0 0 -655 0 -655 75 0 75 0 0 -295 0 -295 -421 0 -420 0 -294 593 -294 592
0 -592 -1 -593 -415 0 -415 0 0 295 0 294 78 3 77 3 0 650 0 650 -77 3 -78 3
0 294 0 295 418 0 418 0 299 -600z"/>
<path d="M920 2945 l0 -245 75 0 75 0 0 -705 0 -705 -75 0 -75 0 0 -245 0
-245 365 0 365 0 1 673 0 672 334 -672 334 -673 380 0 381 0 0 248 0 247 -75
0 -75 0 0 697 0 698 75 0 75 0 0 250 0 250 -365 0 -365 0 2 -670 c2 -369 0
-670 -3 -670 -3 0 -155 302 -337 670 l-332 670 -380 0 -380 0 0 -245z"/>
</g>
</svg>
